{
  "accessors": [
    {
      "bufferView": 2,
      "componentType": 5126,
      "count": 2209,
      "max": [
        0.32688701152801514,
        0.44363898038864136,
        0.63489800691604614
      ],
      "min": [
        0,
        0,
        0
      ],
      "type": "VEC3"
    },
    {
      "bufferView": 2,
      "byteOffset": 26508,
      "componentType": 5126,
      "count": 2209,
      "max": [
        0.99225062131881714,
        0.99998795986175537,
        0.99991428852081299
      ],
      "min": [
        -0.99262106418609619,
        -0.16689570248126984,
        -0.58640974760055542
      ],
      "type": "VEC3"
    },
    {
      "bufferView": 1,
      "componentType": 5126,
      "count": 2209,
      "max": [
        0.67940002679824829,
        0.96450001001358032
      ],
      "min": [
        0.33360001444816589,
        0.021800000220537186
      ],
      "type": "VEC2"
    },
    {
      "bufferView": 0,
      "componentType": 5125,
      "count": 12624,
      "max": [
        2208
      ],
      "min": [
        0
      ],
      "type": "SCALAR"
    }
  ],
  "asset": {
    "extras": {
      "author": "YouniqueĪdeaStudio (https://sketchfab.com/sinnervoncrawsz)",
      "license": "CC-BY-4.0 (http://creativecommons.org/licenses/by/4.0/)",
      "source": "https://sketchfab.com/3d-models/leaf-51137fac487d4174b6d5f3bbf9a15c78",
      "title": "LEAF"
    },
    "generator": "Sketchfab-8.95.0",
    "version": "2.0"
  },
  "bufferViews": [
    {
      "buffer": 0,
      "byteLength": 50496,
      "byteOffset": 0,
      "name": "floatBufferViews",
      "target": 34963
    },
    {
      "buffer": 0,
      "byteLength": 17672,
      "byteOffset": 50496,
      "byteStride": 8,
      "name": "floatBufferViews",
      "target": 34962
    },
    {
      "buffer": 0,
      "byteLength": 53016,
      "byteOffset": 68168,
      "byteStride": 12,
      "name": "floatBufferViews",
      "target": 34962
    }
  ],
  "buffers": [
    {
      "byteLength": 121184,
      "uri": "scene.bin"
    }
  ],
  "materials": [
    {
      "doubleSided": true,
      "emissiveFactor": [
        0,
        0,
        0
      ],
      "name": "Material.001",
      "pbrMetallicRoughness": {
        "baseColorFactor": [
          0.0079869999999999993,
          0.064008999999999996,
          0.001954,
          1
        ],
        "metallicFactor": 0,
        "roughnessFactor": 0.74065028532803612
      }
    }
  ],
  "meshes": [
    {
      "primitives": [
        {
          "attributes": {
            "NORMAL": 1,
            "POSITION": 0,
            "TEXCOORD_0": 2
          },
          "indices": 3,
          "material": 0,
          "mode": 4
        }
      ]
    }
  ],
  "nodes": [
    {
      "children": [
        1
      ],
      "name": "RootNode (gltf orientation matrix)",
      "rotation": [
        -0.70710678118654746,
        -0,
        -0,
        0.70710678118654757
      ]
    },
    {
      "children": [
        2
      ],
      "matrix": [
        0.14073226372747882,
        -2.6412098643222338e-17,
        -0.19180819009379135,
        0,
        0.16828307611922,
        0.11415573722504213,
        0.1234715688064334,
        0,
        0.092039068934834489,
        -0.20872091057592002,
        0.067530310345217615,
        0,
        -0.96641349792480469,
        0.3112177848815918,
        -1.3827711343765259,
        1
      ],
      "name": "RootNode (model correction matrix)"
    },
    {
      "children": [
        3
      ],
      "matrix": [
        1,
        0,
        0,
        0,
        0,
        1,
        0,
        0,
        0,
        0,
        1,
        0,
        -1.1123290061950684,
        0.70205897092819214,
        -0.51045900583267212,
        1
      ],
      "name": "LEAF.obj.cleaner.materialmerger.gles"
    },
    {
      "children": [
        4
      ],
      "name": ""
    },
    {
      "mesh": 0,
      "name": ""
    }
  ],
  "scene": 0,
  "scenes": [
    {
      "name": "OSG_Scene",
      "nodes": [
        0
      ]
    }
  ]
}

